<svg width="213" height="53" viewBox="0 0 213 53" fill="none" xmlns="http://www.w3.org/2000/svg">
<path d="M212.121 32.1213C213.293 30.9497 213.293 29.0503 212.121 27.8787L193.029 8.7868C191.858 7.61522 189.958 7.61522 188.787 8.7868C187.615 9.95837 187.615 11.8579 188.787 13.0294L205.757 30L188.787 46.9706C187.615 48.1421 187.615 50.0416 188.787 51.2132C189.958 52.3848 191.858 52.3848 193.029 51.2132L212.121 32.1213ZM162 33H210V27H162V33Z" fill="#F8F8F8"/>
<path d="M42.5455 2.45454V49H37.0909L11.7273 12.4545H11.2727V49H5.63636V2.45454H11.0909L36.5455 39.0909H37V2.45454H42.5455ZM67.733 49.7273C64.3693 49.7273 61.4678 48.9848 59.0284 47.5C56.6042 46 54.733 43.9091 53.4148 41.2273C52.1117 38.5303 51.4602 35.3939 51.4602 31.8182C51.4602 28.2424 52.1117 25.0909 53.4148 22.3636C54.733 19.6212 56.5663 17.4848 58.9148 15.9545C61.2784 14.4091 64.036 13.6364 67.1875 13.6364C69.0057 13.6364 70.8011 13.9394 72.5739 14.5455C74.3466 15.1515 75.9602 16.1364 77.4148 17.5C78.8693 18.8485 80.0284 20.6364 80.892 22.8636C81.7557 25.0909 82.1875 27.8333 82.1875 31.0909V33.3636H55.2784V28.7273H76.733C76.733 26.7576 76.339 25 75.5511 23.4545C74.7784 21.9091 73.6723 20.6894 72.233 19.7955C70.8087 18.9015 69.1269 18.4545 67.1875 18.4545C65.0511 18.4545 63.2027 18.9848 61.642 20.0455C60.0966 21.0909 58.9072 22.4545 58.0739 24.1364C57.2405 25.8182 56.8239 27.6212 56.8239 29.5455V32.6364C56.8239 35.2727 57.2784 37.5076 58.1875 39.3409C59.1117 41.1591 60.392 42.5455 62.0284 43.5C63.6648 44.4394 65.5663 44.9091 67.733 44.9091C69.142 44.9091 70.4148 44.7121 71.5511 44.3182C72.7027 43.9091 73.6951 43.303 74.5284 42.5C75.3617 41.6818 76.0057 40.6667 76.4602 39.4545L81.642 40.9091C81.0966 42.6667 80.1799 44.2121 78.892 45.5455C77.6042 46.8636 76.0133 47.8939 74.1193 48.6364C72.2254 49.3636 70.0966 49.7273 67.733 49.7273ZM93.4091 14.0909L101.773 28.3636L110.136 14.0909H116.318L105.045 31.5455L116.318 49H110.136L101.773 35.4545L93.4091 49H87.2273L98.3182 31.5455L87.2273 14.0909H93.4091ZM139.153 14.0909V18.6364H121.062V14.0909H139.153ZM126.335 5.72727H131.699V39C131.699 40.5152 131.919 41.6515 132.358 42.4091C132.813 43.1515 133.388 43.6515 134.085 43.9091C134.797 44.1515 135.547 44.2727 136.335 44.2727C136.926 44.2727 137.411 44.2424 137.79 44.1818C138.169 44.1061 138.472 44.0455 138.699 44L139.79 48.8182C139.426 48.9545 138.919 49.0909 138.267 49.2273C137.616 49.3788 136.79 49.4545 135.79 49.4545C134.275 49.4545 132.79 49.1288 131.335 48.4773C129.896 47.8258 128.699 46.8333 127.744 45.5C126.805 44.1667 126.335 42.4848 126.335 40.4545V5.72727Z" fill="white"/>
</svg>
